<svg xmlns="http://www.w3.org/2000/svg" version="1.1" xmlns:xlink="http://www.w3.org/1999/xlink" xmlns:svgjs="http://svgjs.dev/svgjs" width="32" height="32">
  <style>
    path {
      fill: black;
      stroke: black;
    }
    @media (prefers-color-scheme: dark) {
      path {
        fill: white;
        stroke: white;
      }
    }
  </style>

  <svg xmlns="http://www.w3.org/2000/svg" width="32" height="32" viewBox="0 0 375 375">
    <path d="M134.84375 218.21993C134.84375 214.8879 133.9375 213.07993 132.125 212.79868C131.4375 212.66495 130.675781 212.59493 129.84375 212.59493H123.578125L74.40625 93.17305H58.984375L13.34375 212.59493H0V218.21993H38.34375C38.34375 214.8879 37.441406 213.07993 35.640625 212.79868C34.941406 212.66495 34.175781 212.59493 33.34375 212.59493H21.671875L36.671875 172.57931H78.15625L93.78125 212.59493H78.984375V218.21993H134.84375ZM75.65625 166.32931H39.1875L57.109375 118.39181L75.65625 166.32931Z"/>
    <path d="M263.771263 207.50922C263.771263 204.82172 263.040794 203.36472 261.583544 203.13422C261.021263 203.02094 260.400169 202.96235 259.724294 202.96235H254.677544L214.974294 106.54047H202.521294L165.661294 202.96235H154.896263V207.50922H185.865044C185.865044 204.82172 185.134575 203.36472 183.677325 203.13422C183.115044 203.02094 182.493919 202.96235 181.818044 202.96235H172.396294L184.505919 170.65047H217.005919L229.614294 202.96235H217.677544V207.50922H263.771263ZM215.974294 165.60297H186.536294L201.005919 126.90047L215.974294 165.60297Z"/>
    <path stroke-width="5" d="M3.066547 169.87832H480.243661"/>
  </svg>
</svg>
